<svg width="50" height="50" fill="none" stroke="#000000" stroke-linecap="round" stroke-linejoin="round" stroke-width="1.5" viewBox="0 0 24 24" xmlns="http://www.w3.org/2000/svg">
                    <path d="M18 5H6a1 1 0 0 0-1 1v12a1 1 0 0 0 1 1h12a1 1 0 0 0 1-1V6a1 1 0 0 0-1-1Z"></path>
                    <path d="M9 9h6v6H9V9Z"></path>
                    <path d="M3 10h2"></path>
                    <path d="M3 14h2"></path>
                    <path d="M10 3v2"></path>
                    <path d="M14 3v2"></path>
                    <path d="M21 10h-2"></path>
                    <path d="M21 14h-2"></path>
                    <path d="M14 21v-2"></path>
                    <path d="M10 21v-2"></path>
                  </svg>